<svg width="25" height="23" viewBox="0 0 25 23" fill="none" xmlns="http://www.w3.org/2000/svg">
<circle cx="11.5" cy="11.5" r="11.5" fill="#CF5236"/>
<path d="M8.532 16.12C7.844 16.12 7.208 16 6.624 15.76C6.04 15.52 5.528 15.184 5.088 14.752C4.656 14.312 4.32 13.8 4.08 13.216C3.84 12.632 3.72 11.996 3.72 11.308C3.72 10.62 3.84 9.988 4.08 9.412C4.32 8.828 4.656 8.32 5.088 7.888C5.528 7.448 6.04 7.108 6.624 6.868C7.208 6.628 7.844 6.508 8.532 6.508C9.22 6.508 9.852 6.628 10.428 6.868C11.012 7.108 11.52 7.448 11.952 7.888C12.392 8.32 12.732 8.828 12.972 9.412C13.212 9.988 13.332 10.62 13.332 11.308C13.332 11.98 13.216 12.604 12.984 13.18C12.752 13.756 12.428 14.26 12.012 14.692L12.732 15.4C12.804 15.472 12.84 15.556 12.84 15.652C12.84 15.74 12.804 15.82 12.732 15.892C12.66 15.964 12.576 16 12.48 16C12.392 16 12.312 15.964 12.24 15.892L11.496 15.148C11.088 15.46 10.632 15.7 10.128 15.868C9.632 16.036 9.1 16.12 8.532 16.12ZM8.532 15.4C8.996 15.4 9.432 15.332 9.84 15.196C10.256 15.06 10.632 14.872 10.968 14.632L9.576 13.252C9.504 13.18 9.468 13.1 9.468 13.012C9.468 12.916 9.504 12.832 9.576 12.76C9.648 12.688 9.728 12.652 9.816 12.652C9.912 12.652 9.996 12.688 10.068 12.76L11.496 14.176C11.84 13.808 12.112 13.38 12.312 12.892C12.512 12.404 12.612 11.876 12.612 11.308C12.612 10.732 12.508 10.196 12.3 9.7C12.1 9.204 11.812 8.772 11.436 8.404C11.068 8.028 10.636 7.74 10.14 7.54C9.644 7.332 9.108 7.228 8.532 7.228C7.948 7.228 7.408 7.332 6.912 7.54C6.416 7.74 5.98 8.028 5.604 8.404C5.236 8.772 4.948 9.204 4.74 9.7C4.54 10.196 4.44 10.732 4.44 11.308C4.44 11.892 4.54 12.432 4.74 12.928C4.948 13.424 5.236 13.86 5.604 14.236C5.98 14.604 6.416 14.892 6.912 15.1C7.408 15.3 7.948 15.4 8.532 15.4ZM18.1308 16.072C17.4908 16.072 16.9148 15.928 16.4028 15.64C15.8988 15.344 15.4988 14.944 15.2028 14.44C14.9148 13.928 14.7708 13.356 14.7708 12.724C14.7708 12.084 14.9148 11.512 15.2028 11.008C15.4988 10.496 15.8988 10.096 16.4028 9.808C16.9148 9.512 17.4908 9.364 18.1308 9.364C18.7708 9.364 19.3428 9.512 19.8468 9.808C20.3508 10.096 20.7468 10.496 21.0348 11.008C21.3308 11.512 21.4788 12.084 21.4788 12.724V15.64C21.4788 15.744 21.4468 15.832 21.3828 15.904C21.3188 15.968 21.2308 16 21.1188 16C21.0148 16 20.9268 15.968 20.8548 15.904C20.7908 15.832 20.7588 15.744 20.7588 15.64V14.704C20.4948 15.12 20.1348 15.452 19.6788 15.7C19.2228 15.948 18.7068 16.072 18.1308 16.072ZM18.1308 15.4C18.6348 15.4 19.0828 15.284 19.4748 15.052C19.8748 14.812 20.1868 14.492 20.4108 14.092C20.6428 13.684 20.7588 13.228 20.7588 12.724C20.7588 12.212 20.6428 11.756 20.4108 11.356C20.1868 10.948 19.8748 10.628 19.4748 10.396C19.0828 10.156 18.6348 10.036 18.1308 10.036C17.6348 10.036 17.1868 10.156 16.7868 10.396C16.3868 10.628 16.0708 10.948 15.8388 11.356C15.6068 11.756 15.4908 12.212 15.4908 12.724C15.4908 13.228 15.6068 13.684 15.8388 14.092C16.0708 14.492 16.3868 14.812 16.7868 15.052C17.1868 15.284 17.6348 15.4 18.1308 15.4Z" fill="#C4C4C4"/>
</svg>
