<svg width="23" height="23" viewBox="0 0 23 23" fill="none" xmlns="http://www.w3.org/2000/svg">
<circle cx="11.5" cy="11.5" r="11.5" fill="#CF5236"/>
<path d="M8.532 16.12C7.844 16.12 7.208 16 6.624 15.76C6.04 15.52 5.528 15.184 5.088 14.752C4.656 14.312 4.32 13.8 4.08 13.216C3.84 12.632 3.72 11.996 3.72 11.308C3.72 10.62 3.84 9.988 4.08 9.412C4.32 8.828 4.656 8.32 5.088 7.888C5.528 7.448 6.04 7.108 6.624 6.868C7.208 6.628 7.844 6.508 8.532 6.508C9.22 6.508 9.852 6.628 10.428 6.868C11.012 7.108 11.52 7.448 11.952 7.888C12.392 8.32 12.732 8.828 12.972 9.412C13.212 9.988 13.332 10.62 13.332 11.308C13.332 11.98 13.216 12.604 12.984 13.18C12.752 13.756 12.428 14.26 12.012 14.692L12.732 15.4C12.804 15.472 12.84 15.556 12.84 15.652C12.84 15.74 12.804 15.82 12.732 15.892C12.66 15.964 12.576 16 12.48 16C12.392 16 12.312 15.964 12.24 15.892L11.496 15.148C11.088 15.46 10.632 15.7 10.128 15.868C9.632 16.036 9.1 16.12 8.532 16.12ZM8.532 15.4C8.996 15.4 9.432 15.332 9.84 15.196C10.256 15.06 10.632 14.872 10.968 14.632L9.576 13.252C9.504 13.18 9.468 13.1 9.468 13.012C9.468 12.916 9.504 12.832 9.576 12.76C9.648 12.688 9.728 12.652 9.816 12.652C9.912 12.652 9.996 12.688 10.068 12.76L11.496 14.176C11.84 13.808 12.112 13.38 12.312 12.892C12.512 12.404 12.612 11.876 12.612 11.308C12.612 10.732 12.508 10.196 12.3 9.7C12.1 9.204 11.812 8.772 11.436 8.404C11.068 8.028 10.636 7.74 10.14 7.54C9.644 7.332 9.108 7.228 8.532 7.228C7.948 7.228 7.408 7.332 6.912 7.54C6.416 7.74 5.98 8.028 5.604 8.404C5.236 8.772 4.948 9.204 4.74 9.7C4.54 10.196 4.44 10.732 4.44 11.308C4.44 11.892 4.54 12.432 4.74 12.928C4.948 13.424 5.236 13.86 5.604 14.236C5.98 14.604 6.416 14.892 6.912 15.1C7.408 15.3 7.948 15.4 8.532 15.4ZM15.7308 16C15.6268 16 15.5388 15.968 15.4668 15.904C15.4028 15.832 15.3708 15.744 15.3708 15.64V9.796C15.3708 9.684 15.4028 9.596 15.4668 9.532C15.5388 9.468 15.6268 9.436 15.7308 9.436C15.8428 9.436 15.9308 9.468 15.9948 9.532C16.0588 9.596 16.0908 9.684 16.0908 9.796V15.64C16.0908 15.744 16.0588 15.832 15.9948 15.904C15.9308 15.968 15.8428 16 15.7308 16ZM15.7188 8.056C15.5668 8.056 15.4348 8.004 15.3228 7.9C15.2188 7.788 15.1668 7.652 15.1668 7.492C15.1668 7.308 15.2228 7.172 15.3348 7.084C15.4548 6.988 15.5868 6.94 15.7308 6.94C15.8668 6.94 15.9908 6.988 16.1028 7.084C16.2228 7.172 16.2828 7.308 16.2828 7.492C16.2828 7.652 16.2268 7.788 16.1148 7.9C16.0108 8.004 15.8788 8.056 15.7188 8.056Z" fill="#C4C4C4"/>
</svg>
