<svg width="23" height="23" viewBox="0 0 23 23" fill="none" xmlns="http://www.w3.org/2000/svg">
<circle cx="11.5" cy="11.5" r="11.5" fill="#CF5236"/>
<path d="M7.008 16.12C6.248 16.12 5.592 15.964 5.04 15.652C4.488 15.34 4.08 14.92 3.816 14.392C3.768 14.296 3.764 14.204 3.804 14.116C3.852 14.028 3.928 13.968 4.032 13.936C4.12 13.904 4.208 13.908 4.296 13.948C4.384 13.988 4.452 14.052 4.5 14.14C4.708 14.532 5.024 14.84 5.448 15.064C5.88 15.288 6.4 15.4 7.008 15.4C7.696 15.4 8.236 15.228 8.628 14.884C9.028 14.54 9.228 14.052 9.228 13.42C9.228 12.892 9.036 12.448 8.652 12.088C8.276 11.72 7.7 11.484 6.924 11.38C6.028 11.252 5.328 10.964 4.824 10.516C4.32 10.06 4.068 9.508 4.068 8.86C4.068 8.388 4.184 7.976 4.416 7.624C4.656 7.272 4.988 7 5.412 6.808C5.844 6.608 6.34 6.508 6.9 6.508C7.316 6.508 7.7 6.576 8.052 6.712C8.404 6.848 8.712 7.028 8.976 7.252C9.24 7.468 9.444 7.696 9.588 7.936C9.644 8.024 9.656 8.12 9.624 8.224C9.6 8.32 9.536 8.388 9.432 8.428C9.344 8.46 9.256 8.464 9.168 8.44C9.08 8.408 9.008 8.352 8.952 8.272C8.84 8.104 8.696 7.94 8.52 7.78C8.344 7.62 8.124 7.488 7.86 7.384C7.596 7.28 7.276 7.228 6.9 7.228C6.244 7.228 5.728 7.376 5.352 7.672C4.976 7.968 4.788 8.388 4.788 8.932C4.788 9.364 4.968 9.736 5.328 10.048C5.688 10.352 6.26 10.572 7.044 10.708C8.076 10.884 8.816 11.204 9.264 11.668C9.72 12.124 9.948 12.708 9.948 13.42C9.948 13.98 9.824 14.464 9.576 14.872C9.328 15.272 8.984 15.58 8.544 15.796C8.104 16.012 7.592 16.12 7.008 16.12ZM14.8027 16.072C14.1627 16.072 13.5867 15.928 13.0747 15.64C12.5707 15.344 12.1707 14.944 11.8747 14.44C11.5867 13.928 11.4427 13.356 11.4427 12.724C11.4427 12.084 11.5867 11.512 11.8747 11.008C12.1707 10.496 12.5707 10.096 13.0747 9.808C13.5867 9.512 14.1627 9.364 14.8027 9.364C15.4427 9.364 16.0147 9.512 16.5187 9.808C17.0227 10.096 17.4187 10.496 17.7067 11.008C18.0027 11.512 18.1507 12.084 18.1507 12.724V15.64C18.1507 15.744 18.1187 15.832 18.0547 15.904C17.9907 15.968 17.9027 16 17.7907 16C17.6867 16 17.5987 15.968 17.5267 15.904C17.4627 15.832 17.4307 15.744 17.4307 15.64V14.704C17.1667 15.12 16.8067 15.452 16.3507 15.7C15.8947 15.948 15.3787 16.072 14.8027 16.072ZM14.8027 15.4C15.3067 15.4 15.7547 15.284 16.1467 15.052C16.5467 14.812 16.8587 14.492 17.0827 14.092C17.3147 13.684 17.4307 13.228 17.4307 12.724C17.4307 12.212 17.3147 11.756 17.0827 11.356C16.8587 10.948 16.5467 10.628 16.1467 10.396C15.7547 10.156 15.3067 10.036 14.8027 10.036C14.3067 10.036 13.8587 10.156 13.4587 10.396C13.0587 10.628 12.7427 10.948 12.5107 11.356C12.2787 11.756 12.1627 12.212 12.1627 12.724C12.1627 13.228 12.2787 13.684 12.5107 14.092C12.7427 14.492 13.0587 14.812 13.4587 15.052C13.8587 15.284 14.3067 15.4 14.8027 15.4Z" fill="#C4C4C4"/>
</svg>
