<svg width="23" height="23" viewBox="0 0 23 23" fill="none" xmlns="http://www.w3.org/2000/svg">
<circle cx="11.5" cy="11.5" r="11.5" fill="#CF5236"/>
<path d="M7.008 16.12C6.248 16.12 5.592 15.964 5.04 15.652C4.488 15.34 4.08 14.92 3.816 14.392C3.768 14.296 3.764 14.204 3.804 14.116C3.852 14.028 3.928 13.968 4.032 13.936C4.12 13.904 4.208 13.908 4.296 13.948C4.384 13.988 4.452 14.052 4.5 14.14C4.708 14.532 5.024 14.84 5.448 15.064C5.88 15.288 6.4 15.4 7.008 15.4C7.696 15.4 8.236 15.228 8.628 14.884C9.028 14.54 9.228 14.052 9.228 13.42C9.228 12.892 9.036 12.448 8.652 12.088C8.276 11.72 7.7 11.484 6.924 11.38C6.028 11.252 5.328 10.964 4.824 10.516C4.32 10.06 4.068 9.508 4.068 8.86C4.068 8.388 4.184 7.976 4.416 7.624C4.656 7.272 4.988 7 5.412 6.808C5.844 6.608 6.34 6.508 6.9 6.508C7.316 6.508 7.7 6.576 8.052 6.712C8.404 6.848 8.712 7.028 8.976 7.252C9.24 7.468 9.444 7.696 9.588 7.936C9.644 8.024 9.656 8.12 9.624 8.224C9.6 8.32 9.536 8.388 9.432 8.428C9.344 8.46 9.256 8.464 9.168 8.44C9.08 8.408 9.008 8.352 8.952 8.272C8.84 8.104 8.696 7.94 8.52 7.78C8.344 7.62 8.124 7.488 7.86 7.384C7.596 7.28 7.276 7.228 6.9 7.228C6.244 7.228 5.728 7.376 5.352 7.672C4.976 7.968 4.788 8.388 4.788 8.932C4.788 9.364 4.968 9.736 5.328 10.048C5.688 10.352 6.26 10.572 7.044 10.708C8.076 10.884 8.816 11.204 9.264 11.668C9.72 12.124 9.948 12.708 9.948 13.42C9.948 13.98 9.824 14.464 9.576 14.872C9.328 15.272 8.984 15.58 8.544 15.796C8.104 16.012 7.592 16.12 7.008 16.12ZM14.7067 16.06C14.0747 16.06 13.5107 15.92 13.0147 15.64C12.5267 15.352 12.1427 14.956 11.8627 14.452C11.5827 13.948 11.4427 13.372 11.4427 12.724C11.4427 12.068 11.5747 11.492 11.8387 10.996C12.1027 10.492 12.4667 10.096 12.9307 9.808C13.3947 9.52 13.9267 9.376 14.5267 9.376C15.1187 9.376 15.6427 9.516 16.0987 9.796C16.5547 10.068 16.9107 10.448 17.1667 10.936C17.4227 11.416 17.5507 11.972 17.5507 12.604C17.5507 12.708 17.5187 12.792 17.4547 12.856C17.3907 12.912 17.3067 12.94 17.2027 12.94H12.1747C12.1987 13.42 12.3227 13.844 12.5467 14.212C12.7707 14.58 13.0667 14.868 13.4347 15.076C13.8107 15.284 14.2347 15.388 14.7067 15.388C15.0187 15.388 15.3307 15.336 15.6427 15.232C15.9627 15.12 16.2147 14.976 16.3987 14.8C16.4627 14.736 16.5387 14.704 16.6267 14.704C16.7227 14.696 16.8027 14.72 16.8667 14.776C16.9547 14.848 16.9987 14.928 16.9987 15.016C17.0067 15.104 16.9707 15.184 16.8907 15.256C16.6347 15.488 16.2987 15.68 15.8827 15.832C15.4747 15.984 15.0827 16.06 14.7067 16.06ZM14.5267 10.048C14.1107 10.048 13.7347 10.144 13.3987 10.336C13.0627 10.528 12.7867 10.796 12.5707 11.14C12.3627 11.476 12.2347 11.868 12.1867 12.316H16.8547C16.7987 11.644 16.5587 11.1 16.1347 10.684C15.7107 10.26 15.1747 10.048 14.5267 10.048Z" fill="#C4C4C4"/>
</svg>
