<svg width="23" height="23" viewBox="0 0 23 23" fill="none" xmlns="http://www.w3.org/2000/svg">
<circle cx="11.5" cy="11.5" r="11.5" fill="#CF5236"/>
<path d="M7.008 16.12C6.248 16.12 5.592 15.964 5.04 15.652C4.488 15.34 4.08 14.92 3.816 14.392C3.768 14.296 3.764 14.204 3.804 14.116C3.852 14.028 3.928 13.968 4.032 13.936C4.12 13.904 4.208 13.908 4.296 13.948C4.384 13.988 4.452 14.052 4.5 14.14C4.708 14.532 5.024 14.84 5.448 15.064C5.88 15.288 6.4 15.4 7.008 15.4C7.696 15.4 8.236 15.228 8.628 14.884C9.028 14.54 9.228 14.052 9.228 13.42C9.228 12.892 9.036 12.448 8.652 12.088C8.276 11.72 7.7 11.484 6.924 11.38C6.028 11.252 5.328 10.964 4.824 10.516C4.32 10.06 4.068 9.508 4.068 8.86C4.068 8.388 4.184 7.976 4.416 7.624C4.656 7.272 4.988 7 5.412 6.808C5.844 6.608 6.34 6.508 6.9 6.508C7.316 6.508 7.7 6.576 8.052 6.712C8.404 6.848 8.712 7.028 8.976 7.252C9.24 7.468 9.444 7.696 9.588 7.936C9.644 8.024 9.656 8.12 9.624 8.224C9.6 8.32 9.536 8.388 9.432 8.428C9.344 8.46 9.256 8.464 9.168 8.44C9.08 8.408 9.008 8.352 8.952 8.272C8.84 8.104 8.696 7.94 8.52 7.78C8.344 7.62 8.124 7.488 7.86 7.384C7.596 7.28 7.276 7.228 6.9 7.228C6.244 7.228 5.728 7.376 5.352 7.672C4.976 7.968 4.788 8.388 4.788 8.932C4.788 9.364 4.968 9.736 5.328 10.048C5.688 10.352 6.26 10.572 7.044 10.708C8.076 10.884 8.816 11.204 9.264 11.668C9.72 12.124 9.948 12.708 9.948 13.42C9.948 13.98 9.824 14.464 9.576 14.872C9.328 15.272 8.984 15.58 8.544 15.796C8.104 16.012 7.592 16.12 7.008 16.12ZM11.5027 16C11.3507 16 11.2427 15.932 11.1787 15.796C11.1147 15.66 11.1307 15.532 11.2267 15.412L13.4587 12.64L11.4907 10.036C11.3947 9.916 11.3787 9.788 11.4427 9.652C11.5067 9.508 11.6147 9.436 11.7667 9.436C11.8707 9.436 11.9587 9.472 12.0307 9.544L13.9507 12.1L15.9547 9.652C16.0747 9.508 16.1987 9.436 16.3267 9.436C16.4867 9.436 16.5907 9.508 16.6387 9.652C16.6867 9.788 16.6627 9.916 16.5667 10.036L14.4427 12.568L16.5787 15.412C16.6827 15.54 16.7187 15.648 16.6867 15.736C16.6627 15.824 16.6147 15.892 16.5427 15.94C16.4707 15.98 16.4107 16 16.3627 16C16.2667 16 16.1907 15.984 16.1347 15.952C16.0787 15.912 16.0187 15.852 15.9547 15.772L13.9387 13.096L11.7547 15.892C11.7067 15.964 11.6227 16 11.5027 16Z" fill="#C4C4C4"/>
</svg>
