<svg width="23" height="23" viewBox="0 0 23 23" fill="none" xmlns="http://www.w3.org/2000/svg">
<circle cx="11.5" cy="11.5" r="11.5" fill="#CF5236"/>
<path d="M6.9 16C6.796 16 6.708 15.968 6.636 15.904C6.572 15.832 6.54 15.744 6.54 15.64V7.276H3.504C3.408 7.276 3.328 7.248 3.264 7.192C3.208 7.128 3.18 7.048 3.18 6.952C3.18 6.856 3.208 6.78 3.264 6.724C3.328 6.66 3.408 6.628 3.504 6.628H10.296C10.392 6.628 10.468 6.66 10.524 6.724C10.588 6.78 10.62 6.856 10.62 6.952C10.62 7.048 10.588 7.128 10.524 7.192C10.468 7.248 10.392 7.276 10.296 7.276H7.26V15.64C7.26 15.744 7.224 15.832 7.152 15.904C7.088 15.968 7.004 16 6.9 16ZM12.984 16.06C12.352 16.06 11.788 15.92 11.292 15.64C10.804 15.352 10.42 14.956 10.14 14.452C9.86 13.948 9.72 13.372 9.72 12.724C9.72 12.068 9.852 11.492 10.116 10.996C10.38 10.492 10.744 10.096 11.208 9.808C11.672 9.52 12.204 9.376 12.804 9.376C13.396 9.376 13.92 9.516 14.376 9.796C14.832 10.068 15.188 10.448 15.444 10.936C15.7 11.416 15.828 11.972 15.828 12.604C15.828 12.708 15.796 12.792 15.732 12.856C15.668 12.912 15.584 12.94 15.48 12.94H10.452C10.476 13.42 10.6 13.844 10.824 14.212C11.048 14.58 11.344 14.868 11.712 15.076C12.088 15.284 12.512 15.388 12.984 15.388C13.296 15.388 13.608 15.336 13.92 15.232C14.24 15.12 14.492 14.976 14.676 14.8C14.74 14.736 14.816 14.704 14.904 14.704C15 14.696 15.08 14.72 15.144 14.776C15.232 14.848 15.276 14.928 15.276 15.016C15.284 15.104 15.248 15.184 15.168 15.256C14.912 15.488 14.576 15.68 14.16 15.832C13.752 15.984 13.36 16.06 12.984 16.06ZM12.804 10.048C12.388 10.048 12.012 10.144 11.676 10.336C11.34 10.528 11.064 10.796 10.848 11.14C10.64 11.476 10.512 11.868 10.464 12.316H15.132C15.076 11.644 14.836 11.1 14.412 10.684C13.988 10.26 13.452 10.048 12.804 10.048Z" fill="#C4C4C4"/>
</svg>
